<?xml version="1.0" encoding="iso-8859-1"?>
<!-- Generator: Adobe Illustrator 19.0.0, SVG Export Plug-In . SVG Version: 6.00 Build 0)  -->
<svg version="1.1" id="Layer_1" xmlns="http://www.w3.org/2000/svg" xmlns:xlink="http://www.w3.org/1999/xlink" x="0px" y="0px"
	 viewBox="0 0 512 512" style="enable-background:new 0 0 512 512;" xml:space="preserve">
<g>
	<g>
		<path d="M499.166,496.06l-56.491-32.282L417.92,356.48c-0.512-2.176-1.852-4.079-3.738-5.282l-90.156-57.372
			c0.201-4.491,0.308-8.873,0.334-13.131l69.112-7.679c2.509-0.282,4.762-1.656,6.161-3.746l31.599-47.403H486.4
			c4.719,0,8.533-3.823,8.533-8.533c0-4.71-3.814-8.533-8.533-8.533h-59.733c-2.85,0-5.521,1.425-7.1,3.797l-31.923,47.898
			l-63.607,7.063c-0.167-3.817-0.39-7.5-0.659-11.031l82.578-57.805c2.287-1.596,3.644-4.207,3.644-6.989v-63.437l38.528-23.117
			c4.036-2.423,5.35-7.663,2.918-11.708c-2.423-4.036-7.663-5.35-11.708-2.918l-42.667,25.6c-2.56,1.536-4.139,4.318-4.139,7.313
			v63.821l-71.196,49.844c-2.25-16.61-5.045-27.436-5.787-30.144l-1.45-8.701c-2.018-12.089-7.581-22.764-15.511-31.062
			c0.046-0.358,0.077-0.721,0.077-1.092c0-62.234,122.982-145.681,124.228-146.517c3.917-2.637,4.949-7.936,2.321-11.844
			c-2.637-3.908-7.936-4.949-11.844-2.321c-5.107,3.437-119.42,81.029-130.841,149.892c-8.001-4.023-17.022-6.276-26.534-6.276
			c-9.508,0-18.527,2.253-26.527,6.275C218.048,82.479,103.736,4.888,98.628,1.451c-3.908-2.628-9.216-1.587-11.844,2.321
			s-1.596,9.216,2.321,11.844c34.552,23.228,124.228,94.831,124.228,146.517c0,0.37,0.031,0.732,0.077,1.089
			c-7.931,8.299-13.494,18.974-15.509,31.064l-1.448,8.685c-0.735,2.683-3.537,13.52-5.791,30.16l-71.196-49.844v-63.821
			c0-2.995-1.579-5.777-4.139-7.313l-42.667-25.6c-4.053-2.432-9.284-1.118-11.708,2.918c-2.432,4.045-1.118,9.284,2.918,11.708
			l38.528,23.117v63.437c0,2.782,1.357,5.393,3.644,6.989l82.578,57.805c-0.269,3.532-0.492,7.214-0.659,11.031l-63.607-7.063
			l-31.923-47.898c-1.579-2.372-4.25-3.797-7.1-3.797H25.6c-4.719,0-8.533,3.823-8.533,8.533c0,4.71,3.814,8.533,8.533,8.533h55.168
			l31.599,47.403c1.399,2.091,3.652,3.465,6.161,3.746l69.112,7.679c0.026,4.258,0.134,8.64,0.334,13.131l-90.156,57.372
			c-1.886,1.203-3.226,3.106-3.738,5.282L69.325,463.779L12.834,496.06c-4.096,2.338-5.521,7.552-3.174,11.639
			c1.57,2.756,4.446,4.301,7.415,4.301c1.434,0,2.893-0.358,4.224-1.126l59.733-34.133c2.065-1.178,3.55-3.166,4.087-5.487
			l24.806-107.529l79.468-50.567c4.338,42.157,17.614,91.474,49.778,138.913c3.789,5.572,10.069,8.9,16.828,8.9
			c6.758,0,13.039-3.328,16.828-8.9c32.164-47.439,45.439-96.756,49.778-138.913l79.468,50.567l24.806,107.529
			c0.538,2.321,2.022,4.309,4.087,5.487l59.733,34.133c1.331,0.768,2.79,1.126,4.224,1.126c2.97,0,5.845-1.545,7.415-4.301
			C504.687,503.612,503.262,498.398,499.166,496.06z M297.119,196.267h-82.236c3.703-19.831,20.864-34.133,41.114-34.133
			C276.255,162.134,293.416,176.436,297.119,196.267z M258.688,442.496c-0.819,1.229-2.039,1.408-2.688,1.408
			c-0.649,0-1.869-0.179-2.688-1.408c-64.888-95.693-47.505-202.59-41.771-229.163h88.917
			C306.193,239.907,323.576,346.804,258.688,442.496z"/>
	</g>
</g>
<g>
</g>
<g>
</g>
<g>
</g>
<g>
</g>
<g>
</g>
<g>
</g>
<g>
</g>
<g>
</g>
<g>
</g>
<g>
</g>
<g>
</g>
<g>
</g>
<g>
</g>
<g>
</g>
<g>
</g>
</svg>
