<?xml version="1.0" encoding="iso-8859-1"?>
<!-- Generator: Adobe Illustrator 19.1.0, SVG Export Plug-In . SVG Version: 6.00 Build 0)  -->
<svg version="1.1" id="Capa_1" xmlns="http://www.w3.org/2000/svg" xmlns:xlink="http://www.w3.org/1999/xlink" x="0px" y="0px"
	 viewBox="0 0 440.558 440.558" style="enable-background: new 0 0 440.558 440.558" xml:space="preserve">
<g stroke="rgb(105, 203, 29)" fill="rgb(99, 156, 38)">
	<path style="fill: #669933" d="M 368.9 340.6 c 5 -8 10.6 -14.1 15.6 -18.7 c -14.5 3.6 -27.3 12.9 -38.1 27.6 c -11.4 15.7 -16.3 32 -16.3 32.1 c -0.7 2.4 -3 3.9 -5.4 3.6 c -2.4 -0.3 -4.3 -2.3 -4.4 -4.8 c -1.8 -46.6 9.9 -84.5 20 -108.1 c 4.8 -11.1 9.6 -20.1 13.6 -26.8 c -45.5 26.8 -66.5 114.6 -66.7 115.6 c -0.6 2.5 -2.9 4.1 -5.4 3.8 c -2.5 -0.3 -4.4 -2.4 -4.5 -4.9 c -0.6 -35.9 -7.3 -60.4 -13.9 -75.8 c 1.1 43.3 -15.3 106.8 -16.2 110.1 c -0.6 2.4 -2.9 4 -5.4 3.7 c -2.5 -0.3 -4.4 -2.3 -4.4 -4.8 c -1.4 -43.6 -7.8 -70 -13 -84.6 c -6.1 32.8 -22.8 66.6 -23.7 68.3 c -0.9 1.9 -3 3 -5.1 2.7 c -2.1 -0.3 -3.8 -1.8 -4.3 -3.9 c -7.6 -34.1 -4.1 -96.3 16.5 -129.9 c -3.5 1.5 -7.6 3.9 -11.9 7.7 c -11.8 10.4 -26.9 33.3 -32.2 83.8 c -0.3 2.5 -2.3 4.4 -4.8 4.5 c -2.5 0.1 -4.7 -1.7 -5.1 -4.2 c -14.4 -88.1 -46.9 -113.2 -65.7 -120.4 c 37 47.1 47 158.6 49.2 194.2 c 0.2 2.6 -1.7 4.9 -4.2 5.3 c -2.6 0.4 -5 -1.2 -5.6 -3.8 c -10.2 -42.1 -29.3 -72.2 -55.2 -87 c -7.7 -4.4 -15 -6.8 -20.8 -8.2 c 33.2 31.5 42.5 62.3 44.1 83.4 c 1.3 16.2 -1.6 29.1 -4 36.5 h 267.3 C 346.5 390.4 357.3 358.9 368.9 340.6 z"/>
	<path style="fill: #663333" d="M 434.6 438 h -65.2 c -10.2 -36.3 -7.6 -67.1 7.6 -91.6 c 11.7 -18.8 27.1 -26.7 27.2 -26.7 c 2 -1 3.1 -3.3 2.7 -5.5 c -0.5 -2.2 -2.4 -3.9 -4.7 -4 c -25.1 -1.1 -47.3 10.5 -64.1 33.6 c -2.9 4 -5.4 8.1 -7.6 11.9 c 4.5 -71.6 40.1 -117.5 40.5 -118 c 1.3 -1.7 1.4 -4 0.3 -5.8 c -1.2 -1.8 -3.4 -2.6 -5.4 -2.1 c -42.9 11.1 -68.5 67.4 -80.4 101.9 c -6.3 -54.1 -26.6 -74.9 -27.6 -75.9 c -1.7 -1.7 -4.3 -1.9 -6.3 -0.6 c -2 1.3 -2.8 3.8 -1.9 6 c 8.2 20.3 1.5 65.9 -4.8 97.5 c -5.8 -51.8 -18.8 -70.1 -19.4 -71 c -1.3 -1.7 -3.5 -2.4 -5.5 -1.8 c -2 0.6 -3.4 2.5 -3.5 4.6 c -0.9 22.6 -10.9 50.1 -17.9 66.8 c -3.6 -37.6 3 -93.2 24.9 -115.5 c 1.4 -1.4 1.8 -3.4 1.1 -5.3 c -0.7 -1.8 -2.4 -3.1 -4.3 -3.2 c -0.6 0 -14.8 -0.9 -30.2 12.1 c -15.1 12.8 -25.8 33.9 -32 63 c -10 -41.7 -25.8 -71.5 -47 -88.9 c -19.9 -16.3 -37.3 -15 -38 -14.9 c -2 0.2 -3.8 1.6 -4.3 3.6 c -0.6 2 0.1 4.1 1.7 5.3 c 28.4 22.5 45.4 90.6 53.2 157.8 c -14 -30 -32 -45.7 -46.5 -53.9 c -21.9 -12.4 -40.4 -11 -41.2 -11 c -2 0.2 -3.8 1.6 -4.4 3.5 c -0.6 1.9 0 4.1 1.6 5.4 c 31.6 25.8 49.7 55.6 52.3 86.3 c 1.5 17.5 -2.5 30.8 -4.5 36.3 H 4 c -2.8 0 -5 2.2 -5 5 c 0 2.8 2.2 5 5 5 h 430.6 c 2.8 0 5 -2.2 5 -5 C 439.6 440.2 437.3 438 434.6 438 z M 91.7 438 c 2.4 -7.5 5.2 -20.3 4 -36.5 c -1.6 -21.2 -10.9 -51.9 -44.1 -83.4 c 5.9 1.3 13.1 3.8 20.8 8.2 c 25.9 14.8 45 44.8 55.2 87 c 0.6 2.5 3.1 4.2 5.6 3.8 c 2.6 -0.4 4.4 -2.7 4.2 -5.3 c -2.3 -35.6 -12.3 -147.1 -49.2 -194.2 c 18.8 7.1 51.3 32.3 65.7 120.4 c 0.4 2.5 2.6 4.3 5.1 4.2 c 2.5 -0.1 4.6 -2 4.8 -4.5 c 5.3 -50.5 20.4 -73.5 32.2 -83.8 c 4.2 -3.7 8.3 -6.1 11.9 -7.7 c -20.6 33.5 -24.1 95.8 -16.5 129.9 c 0.5 2.1 2.2 3.6 4.3 3.9 c 2.1 0.3 4.1 -0.8 5.1 -2.7 c 0.8 -1.7 17.6 -35.5 23.7 -68.3 c 5.1 14.6 11.5 41.1 13 84.6 c 0.1 2.5 2 4.5 4.4 4.8 c 2.5 0.3 4.8 -1.3 5.4 -3.7 c 0.9 -3.3 17.3 -66.9 16.2 -110.1 c 6.5 15.4 13.3 39.9 13.9 75.8 c 0 2.5 2 4.6 4.5 4.9 c 2.5 0.3 4.8 -1.4 5.4 -3.8 c 0.2 -1 21.2 -88.8 66.7 -115.6 c -4 6.7 -8.8 15.7 -13.6 26.8 c -10.1 23.6 -21.9 61.5 -20 108.1 c 0.1 2.4 2 4.5 4.4 4.8 c 2.4 0.3 4.7 -1.2 5.4 -3.6 c 0 -0.2 4.9 -16.5 16.3 -32.1 c 10.8 -14.8 23.5 -24 38.1 -27.6 c -5 4.6 -10.6 10.8 -15.6 18.7 c -11.6 18.3 -22.4 49.8 -9.8 97.4 H 91.7 z"/>
</g>
<g>
</g>
<g>
</g>
<g>
</g>
<g>
</g>
<g>
</g>
<g>
</g>
<g>
</g>
<g>
</g>
<g>
</g>
<g>
</g>
<g>
</g>
<g>
</g>
<g>
</g>
<g>
</g>
<g>
</g>
    <rect stroke="rgb(109, 152, 48)" fill="rgb(108, 168, 44)" height="0" width="0" x="217" y="39"/>
</svg>
