<?xml version="1.0" encoding="iso-8859-1"?>
<!-- Generator: Adobe Illustrator 19.0.0, SVG Export Plug-In . SVG Version: 6.00 Build 0)  -->
<svg version="1.1" id="Capa_1" xmlns="http://www.w3.org/2000/svg" xmlns:xlink="http://www.w3.org/1999/xlink" x="0px" y="0px"
	 viewBox="0 0 490.268 490.268" style="enable-background:new 0 0 490.268 490.268;" xml:space="preserve">
<g>
	<g>
		<path d="M413.466,292.853c-45.131-13.68-104.912-21.214-168.332-21.214c-63.419,0-123.2,7.534-168.331,21.214
			C26.558,308.083,0,329.335,0,354.309c0,16.227,11.864,31.477,33.953,43.884c42.502,23.874,124.061,38.783,211.181,38.784
			c85.979,0,163.507-13.697,207.389-36.639c25.046-13.094,37.745-28.581,37.745-46.029
			C490.268,329.335,463.71,308.083,413.466,292.853z M245.134,412.977c-71.243,0-137.248-9.889-179.463-26.355
			c38.399-20.323,103.232-38.077,179.463-38.076c82.142,0,143.044,19.038,177.285,38.886
			C380.028,403.385,314.751,412.975,245.134,412.977z"/>
		<path d="M183.767,367.393h-10.904c-6.627,0-12,5.373-12,12s5.373,12,12,12h10.904c6.627,0,12-5.373,12-12
			C195.767,372.764,190.394,367.393,183.767,367.393z"/>
		<path d="M274.118,388.276h19.213c6.627,0,12-5.372,12-12c0-6.627-5.373-12-12-12h-19.213c-6.627,0-12,5.373-12,12
			C262.118,382.905,267.491,388.276,274.118,388.276z"/>
		<path d="M120.988,238.41c0,6.627,5.373,12,12,12c6.627,0,12-5.373,12-12c0-14.294,2.812-21.006,6.067-28.777
			c3.719-8.874,7.933-18.932,7.933-38.052c0-19.119-4.214-29.177-7.933-38.051c-3.256-7.771-6.067-14.482-6.067-28.777
			c0-6.627-5.373-12-12-12s-12,5.373-12,12c0,19.119,4.214,29.177,7.933,38.051c3.256,7.771,6.067,14.482,6.067,28.777
			c0,14.295-2.811,21.006-6.067,28.777C125.202,209.232,120.988,219.29,120.988,238.41z"/>
		<path d="M331.279,238.41c0,6.627,5.373,12,12,12s12-5.373,12-12c0-14.294,2.812-21.006,6.067-28.777
			c3.719-8.874,7.933-18.932,7.933-38.052c0-19.119-4.214-29.177-7.933-38.051c-3.256-7.771-6.067-14.482-6.067-28.777
			c0-6.627-5.373-12-12-12s-12,5.373-12,12c0,19.119,4.214,29.177,7.933,38.051c3.256,7.771,6.067,14.482,6.067,28.777
			c0,14.295-2.811,21.006-6.067,28.777C335.493,209.232,331.279,219.29,331.279,238.41z"/>
		<path d="M226.133,198.947c0,6.627,5.373,12,12,12s12-5.373,12-12c0-14.295,2.812-21.005,6.067-28.776
			c3.719-8.874,7.933-18.932,7.933-38.051s-4.214-29.177-7.933-38.051c-3.256-7.771-6.067-14.482-6.067-28.777
			c0-6.627-5.373-12-12-12s-12,5.373-12,12c0,19.12,4.214,29.177,7.933,38.051c3.256,7.771,6.067,14.482,6.067,28.776
			c0,14.295-2.811,21.006-6.067,28.777C230.347,169.77,226.133,179.827,226.133,198.947z"/>
	</g>
</g>
<g>
</g>
<g>
</g>
<g>
</g>
<g>
</g>
<g>
</g>
<g>
</g>
<g>
</g>
<g>
</g>
<g>
</g>
<g>
</g>
<g>
</g>
<g>
</g>
<g>
</g>
<g>
</g>
<g>
</g>
</svg>
