<?xml version="1.0" encoding="iso-8859-1"?>
<!-- Generator: Adobe Illustrator 18.0.0, SVG Export Plug-In . SVG Version: 6.00 Build 0)  -->
<!DOCTYPE svg PUBLIC "-//W3C//DTD SVG 1.1//EN" "http://www.w3.org/Graphics/SVG/1.1/DTD/svg11.dtd">
<svg version="1.1" id="Capa_1" xmlns="http://www.w3.org/2000/svg" xmlns:xlink="http://www.w3.org/1999/xlink" x="0px" y="0px"
	 viewBox="0 0 49.328 49.328" style="enable-background: new 255 255 255" xml:space="preserve">

<g stroke="rgb(246, 13, 202)" fill="rgb(169, 129, 39)">
	<path d="M 48.5 23.8 c -1.8 -4.8 -4 -8.8 -6.3 -12.1 l 0.1 -0.1 l -0.3 -0.5 c -2.7 -3.7 -5.8 -6.6 -8.8 -8.5 c -0.3 -0.2 -0.5 -0.3 -0.7 -0.5 c 0 0 0 0 -0.1 0 c -2.2 -1.3 -4.3 -2 -5.9 -2 h -3 c -6.5 0 -16.4 7.4 -22.5 23.6 c -1.2 3.2 -1.1 6.7 0.2 9.6 c 1.1 2.3 3.3 4.7 6.3 4.7 c 0.1 0 0.2 0 0.2 0 c 1.1 0 2.3 -0.5 3.3 -1.3 c 0.7 -0.5 2.2 -1.5 4.6 -2.2 l -1 7.3 c -0.3 1.8 0.2 3.7 1.4 5.1 s 2.9 2.2 4.8 2.2 h 9.6 c 1.8 0 3.6 -0.8 4.8 -2.2 s 1.7 -3.2 1.4 -5.1 L 35.4 35.1 c 1.5 0.6 2.5 1.3 3.1 1.7 c 1 0.8 2.1 1.2 3.3 1.3 c 3.1 0.1 5.4 -2.3 6.5 -4.7 C 49.6 30.5 49.7 27 48.5 23.8 z M 30.5 3.5 c 0.7 0.3 1.4 0.8 2.1 1.2 c 0.2 0.1 0.4 0.3 0.6 0.4 c 0.1 0 0.1 0.1 0.2 0.1 c 2.1 1.6 4.3 3.8 6.5 6.7 c -1.1 2.1 -3.3 3.4 -5.7 3.4 c -3.6 0 -6.5 -2.9 -6.5 -6.5 C 27.7 6.7 28.8 4.7 30.5 3.5 z M 33.3 34.4 l 1.2 7.8 c 0.2 1.2 -0.2 2.5 -1 3.5 c -0.8 1 -2 1.5 -3.3 1.5 h -9.6 c -1.3 0 -2.4 -0.5 -3.3 -1.5 c -0.8 -1 -1.2 -2.2 -1 -3.5 l 1.1 -8.1 c 0 0 0 0 0.1 0 c 1 -0.2 2.1 -0.4 3.2 -0.5 c 0.1 0 0.3 0 0.4 0 c 0.4 0 0.9 -0.1 1.3 -0.1 c 0.1 0 0.3 0 0.4 0 c 0.6 0 1.2 0 1.8 0 c 0.7 0 1.4 0 2.1 0.1 c 0.1 0 0.3 0 0.4 0 c 0.7 0 1.4 0.1 2 0.2 c 0 0 0.1 0 0.1 0 C 30.7 33.8 32 34.1 33.3 34.4 z M 46.4 32.5 c -0.8 1.8 -2.5 3.6 -4.6 3.5 c -0.9 0 -1.7 -0.5 -2.1 -0.8 c -0.8 -0.6 -2.2 -1.5 -4.7 -2.4 l 0 0 l -0.6 -0.2 c 0 0 -0.1 0 -0.1 0 c -0.6 -0.2 -1.2 -0.4 -1.9 -0.5 c -0.1 0 -0.2 0 -0.3 -0.1 c -0.6 -0.1 -1.3 -0.3 -2.1 -0.4 c -0.1 0 -0.3 0 -0.4 -0.1 c -0.7 -0.1 -1.4 -0.2 -2.2 -0.2 c -0.1 0 -0.3 0 -0.4 0 c -0.8 0 -1.6 -0.1 -2.4 -0.1 c -0.7 0 -1.4 0 -2 0.1 c -0.2 0 -0.4 0 -0.5 0 c -0.5 0 -1 0.1 -1.5 0.1 c -0.2 0 -0.3 0 -0.5 0 c -0.6 0.1 -1.1 0.1 -1.7 0.2 c -0.2 0 -0.4 0.1 -0.5 0.1 c -0.4 0.1 -0.8 0.2 -1.2 0.3 c -0.1 0 -0.2 0 -0.3 0.1 l -0.7 0.2 l 0 0 c -3.3 0.9 -5.2 2.1 -6.1 2.8 c -0.5 0.4 -1.2 0.8 -2.1 0.8 c -2.1 0.1 -3.8 -1.8 -4.6 -3.5 c -1.1 -2.4 -1.2 -5.3 -0.2 -8 C 8.3 9.8 17.3 2.2 23.3 2.2 h 3 c 0.6 0 1.4 0.1 2.2 0.4 c -1.8 1.6 -2.8 3.9 -2.8 6.3 c 0 4.7 3.8 8.5 8.5 8.5 c 2.8 0 5.4 -1.4 6.9 -3.6 c 2 3 3.9 6.6 5.5 10.8 C 47.6 27.2 47.6 30.1 46.4 32.5 z"/>
	<path d="M 15.7 14.4 c -4.4 0 -8 3.6 -8 8 s 3.6 8 8 8 s 8 -3.6 8 -8 S 20.1 14.4 15.7 14.4 z M 15.7 28.4 c -3.3 0 -6 -2.7 -6 -6 s 2.7 -6 6 -6 s 6 2.7 6 6 S 19 28.4 15.7 28.4 z"/>
	<path d="M 38.7 21.4 c -2.8 0 -5 2.2 -5 5 s 2.2 5 5 5 s 5 -2.2 5 -5 S 41.4 21.4 38.7 21.4 z M 38.7 29.4 c -1.7 0 -3 -1.3 -3 -3 s 1.3 -3 3 -3 s 3 1.3 3 3 S 40.3 29.4 38.7 29.4 z"/>

</g>
<g>
</g>
<g>
</g>
<g>
</g>
<g>
</g>
<g>
</g>
<g>
</g>
<g>
</g>
<g>
</g>
<g>
</g>
<g>
</g>
<g>
</g>
<g>
</g>
<g>
</g>
<g>
</g>
<g>
</g>

</svg>
