<?xml version="1.0" encoding="iso-8859-1"?>
<!-- Generator: Adobe Illustrator 19.0.0, SVG Export Plug-In . SVG Version: 6.00 Build 0)  -->
<svg version="1.1" id="Layer_1" xmlns="http://www.w3.org/2000/svg" xmlns:xlink="http://www.w3.org/1999/xlink" x="0px" y="0px"
	 viewBox="0 0 418.609 418.609" style="enable-background: new 0 0 418.609 418.609" xml:space="preserve">
<g fill="rgba(115, 0, 0, 0)" stroke="rgb(134, 134, 134)">
	<circle style="fill: #2d3740" cx="209.3" cy="188.8" r="104.4"/>
	<g>
		<path style="fill: #2d3740" d="M 374 334.2 c -3.1 0 -5.9 -1.9 -7 -4.9 l -41.6 -113 l -54 39.1 c -3.4 2.4 -8 1.7 -10.5 -1.7 c -2.4 -3.4 -1.7 -8 1.7 -10.5 l 62 -45 c 1.9 -1.4 4.3 -1.8 6.6 -1.1 c 2.2 0.7 4 2.4 4.9 4.6 l 45 122.3 c 1.4 3.9 -0.6 8.2 -4.4 9.6 C 375.7 334.1 374.8 334.2 374 334.2 z"/>
		<path style="fill: #2d3740" d="M 387 300.2 c -3.1 0 -5.9 -1.9 -7 -4.9 l -41.6 -113 l -54 39.1 c -3.4 2.4 -8 1.7 -10.5 -1.7 c -2.4 -3.4 -1.7 -8 1.7 -10.5 l 62 -45 c 1.9 -1.4 4.3 -1.8 6.6 -1.1 c 2.2 0.7 4 2.4 4.9 4.6 l 45 122.3 c 1.4 3.9 -0.6 8.2 -4.4 9.6 C 388.8 300 387.9 300.2 387 300.2 z"/>
		<path style="fill: #2d3740" d="M 400.1 266.2 c -3.1 0 -5.9 -1.9 -7 -4.9 l -41.6 -113 l -54 39.1 c -3.4 2.4 -8 1.7 -10.5 -1.7 c -2.4 -3.4 -1.7 -8 1.7 -10.5 l 62 -45 c 1.9 -1.4 4.3 -1.8 6.6 -1.1 c 2.2 0.7 4 2.4 4.9 4.6 l 45 122.3 c 1.4 3.9 -0.6 8.2 -4.4 9.6 C 401.8 266 401 266.2 400.1 266.2 z"/>
		<path style="fill: #2d3740" d="M 411.1 231.2 c -3.1 0 -5.9 -1.9 -7 -4.9 L 362.5 113.3 l -62.9 45.4 c -3.4 2.4 -8 1.7 -10.5 -1.7 c -2.4 -3.4 -1.7 -8 1.7 -10.5 l 70.9 -51.2 c 1.9 -1.4 4.3 -1.8 6.6 -1.1 c 2.2 0.7 4 2.4 4.9 4.6 l 45 122.3 c 1.4 3.9 -0.6 8.2 -4.4 9.6 C 412.8 231 412 231.2 411.1 231.2 z"/>
	</g>
	<g>
		<path style="fill: #2d3740" d="M 44.6 334.2 c 3.1 0 5.9 -1.9 7 -4.9 l 41.6 -113 l 54 39.1 c 3.4 2.4 8 1.7 10.5 -1.7 c 2.4 -3.4 1.7 -8 -1.7 -10.5 l -62 -45 c -1.9 -1.4 -4.3 -1.8 -6.6 -1.1 c -2.2 0.7 -4 2.4 -4.9 4.6 l -45 122.3 c -1.4 3.9 0.6 8.2 4.4 9.6 C 42.9 334.1 43.8 334.2 44.6 334.2 z"/>
		<path style="fill: #2d3740" d="M 31.6 300.2 c 3.1 0 5.9 -1.9 7 -4.9 l 41.6 -113 l 54 39.1 c 3.4 2.4 8 1.7 10.5 -1.7 c 2.4 -3.4 1.7 -8 -1.7 -10.5 l -62 -45 c -1.9 -1.4 -4.3 -1.8 -6.6 -1.1 c -2.2 0.7 -4 2.4 -4.9 4.6 l -45 122.3 c -1.4 3.9 0.6 8.2 4.4 9.6 C 29.8 300 30.7 300.2 31.6 300.2 z"/>
		<path style="fill: #2d3740" d="M 18.5 266.2 c 3.1 0 5.9 -1.9 7 -4.9 L 67.1 148.2 l 54 39.1 c 3.4 2.4 8 1.7 10.5 -1.7 c 2.4 -3.4 1.7 -8 -1.7 -10.5 l -62 -45 c -1.9 -1.4 -4.3 -1.8 -6.6 -1.1 c -2.2 0.7 -4 2.4 -4.9 4.6 l -45 122.3 c -1.4 3.9 0.6 8.2 4.4 9.6 C 16.8 266 17.6 266.2 18.5 266.2 z"/>
		<path style="fill: #2d3740" d="M 7.5 231.2 c 3.1 0 5.9 -1.9 7 -4.9 L 56.1 113.3 l 62.9 45.4 c 3.4 2.4 8 1.7 10.5 -1.7 c 2.4 -3.4 1.7 -8 -1.7 -10.5 L 56.9 95.3 c -1.9 -1.4 -4.3 -1.8 -6.6 -1.1 c -2.2 0.7 -4 2.4 -4.9 4.6 l -45 122.3 c -1.4 3.9 0.6 8.2 4.4 9.6 C 5.8 231 6.6 231.2 7.5 231.2 z"/>
	</g>
	<path style="fill: #e94f3d" d="M 209.3 84.4 c -13.3 0 -26.1 2.5 -37.8 7.1 c 3.3 17.9 19 31.4 37.8 31.4 c 18.8 0 34.5 -13.5 37.8 -31.4 C 235.4 86.9 222.6 84.4 209.3 84.4 z"/>
	<g>
		<circle style="fill: #333e48" cx="209.3" cy="249.4" r="70.7"/>
		<circle style="fill: #7d868c" cx="176" cy="233.3" r="9"/>
		<circle style="fill: #7d868c" cx="195" cy="240.4" r="7.1"/>
		<circle style="fill: #7d868c" cx="242.6" cy="233.3" r="9"/>
		<circle style="fill: #7d868c" cx="223.7" cy="240.4" r="7.1"/>
		<path style="fill: #5c6670" d="M 201.9 253.8 c -4.1 0 -7.4 3.3 -7.4 7.4 v 9 c 0 4.1 3.3 7.4 7.4 7.4 s 7.4 -3.3 7.4 -7.4 v -9 C 209.3 257.1 206 253.8 201.9 253.8 z"/>
		<path style="fill: #5c6670" d="M 216.7 253.8 c -4.1 0 -7.4 3.3 -7.4 7.4 v 9 c 0 4.1 3.3 7.4 7.4 7.4 c 4.1 0 7.4 -3.3 7.4 -7.4 v -9 C 224.1 257.1 220.8 253.8 216.7 253.8 z"/>
	</g>
</g>
<g>
</g>
<g>
</g>
<g>
</g>
<g>
</g>
<g>
</g>
<g>
</g>
<g>
</g>
<g>
</g>
<g>
</g>
<g>
</g>
<g>
</g>
<g>
</g>
<g>
</g>
<g>
</g>
<g>
</g>
</svg>
