<?xml version="1.0" encoding="iso-8859-1"?>
<!-- Generator: Adobe Illustrator 19.0.0, SVG Export Plug-In . SVG Version: 6.00 Build 0)  -->
<svg version="1.1" id="Layer_1" xmlns="http://www.w3.org/2000/svg" xmlns:xlink="http://www.w3.org/1999/xlink" x="0px" y="0px"
	 viewBox="0 0 511.999 511.999" style="enable-background:new 0 0 511.999 511.999;" xml:space="preserve">
<polygon style="fill:#C3C7C9;" points="319.767,205.997 319.767,248.497 277.266,333.497 234.766,333.497 192.266,248.497 
	192.266,205.997 "/>
<polygon style="fill:#9DA1A4;" points="355.183,149.332 355.183,205.997 319.767,205.997 192.266,205.997 156.85,205.997 
	156.85,149.332 192.266,149.332 319.767,149.332 "/>
<rect x="192.269" y="7.665" style="fill:#F25B22;" width="127.498" height="141.67"/>
<rect x="192.269" y="7.665" style="fill:#EF3E25;" width="63.749" height="141.67"/>
<g>
	<rect x="156.851" y="149.336" style="fill:#777B7E;" width="198.333" height="28.333"/>
	<rect x="192.269" y="205.999" style="fill:#777B7E;" width="127.498" height="42.5"/>
</g>
<path style="fill:#00ABD5;" d="M256.017,361.831c0,0,141.666,127.499,0,141.666C114.35,489.33,256.017,361.831,256.017,361.831z"/>
<path style="fill:#009DD3;" d="M277.266,383.449c-11.677-12.995-21.25-21.618-21.25-21.618s-141.666,127.499,0,141.666
	c7.971-0.797,14.998-1.97,21.25-3.442C201.269,482.168,246.542,417.645,277.266,383.449z"/>
<path d="M327.813,141.666V0H184.185v141.666h-35.416v72.794h35.416v36.34l45.58,91.161h26.234h26.234l45.58-91.161v-36.34h35.416
	v-72.794L327.813,141.666L327.813,141.666z M200.313,16.128h111.371v125.538H200.313V16.128z M311.685,240.832h-20.27v16.128H306.7
	l-34.436,68.873h-16.266h-16.266l-34.436-68.873h15.285v-16.128h-20.269V214.46h111.371V240.832z M347.102,198.332H164.897v-12.205
	h169.019v-16.128H164.897v-12.206h182.205V198.332z"/>
<rect x="248.911" y="240.836" width="14.166" height="16.128"/>
<g>
	<rect x="270.168" y="240.836" style="fill:#FFFFFF;" width="14.167" height="16.128"/>
	<rect x="227.664" y="240.836" style="fill:#FFFFFF;" width="14.167" height="16.128"/>
	<polygon style="fill:#FFFFFF;" points="212.518,71.813 228.646,71.813 228.646,44.461 248.916,44.461 248.916,28.333 
		212.518,28.333 	"/>
</g>
<rect x="213.493" y="84.995" width="14.167" height="16.128"/>
<path d="M261.394,356.235l-5.394-4.856l-5.394,4.855c-0.789,0.711-19.522,17.65-36.817,40.152
	c-24.343,31.668-33.33,57.967-26.714,78.163c6.867,20.963,29.788,33.536,68.123,37.37l0.802,0.08l0.802-0.08
	c38.336-3.833,61.256-16.407,68.123-37.37c6.616-20.197-2.371-46.495-26.714-78.163
	C280.915,373.884,262.183,356.946,261.394,356.235z M309.598,469.529c-4.657,14.217-22.689,23.05-53.598,26.261
	c-30.906-3.208-48.936-12.04-53.597-26.254c-9.183-28.008,31.552-74.97,53.6-96.268
	C278.054,394.549,318.786,441.481,309.598,469.529z"/>
<g>
	<rect x="220.579" y="460.416" style="fill:#FFFFFF;" width="14.167" height="16.128"/>
	<rect x="220.579" y="439.17" style="fill:#FFFFFF;" width="14.167" height="16.128"/>
</g>
<rect x="241.836" y="460.416" width="14.167" height="16.128"/>
<g>
</g>
<g>
</g>
<g>
</g>
<g>
</g>
<g>
</g>
<g>
</g>
<g>
</g>
<g>
</g>
<g>
</g>
<g>
</g>
<g>
</g>
<g>
</g>
<g>
</g>
<g>
</g>
<g>
</g>
</svg>
