<?xml version="1.0" encoding="iso-8859-1"?>
<!-- Generator: Adobe Illustrator 19.0.0, SVG Export Plug-In . SVG Version: 6.00 Build 0)  -->
<svg version="1.1" id="Layer_1" xmlns="http://www.w3.org/2000/svg" xmlns:xlink="http://www.w3.org/1999/xlink" x="0px" y="0px"
	 viewBox="0 0 512 512" style="enable-background: new 0 0 512 512" xml:space="preserve">
<path style="fill: #ffa22b" d="M 84.9 286.6 c -53.8 0 -89.9 -55.6 -68.4 -104.8 C 56.8 89.4 148.8 24.9 256 24.9 s 199.2 64.5 239.5 156.8 c 21.5 49.3 -14.6 104.8 -68.4 104.8 H 84.9 V 286.6 z"/>
<path style="fill: #ffcc85" d="M 188.4 286.6 h 135.2 l 22 148.4 c 2.6 19.1 -19.7 52.1 -48.2 52.1 h -83 c -28.4 0 -50.7 -33 -48.2 -52.1 L 188.4 286.6 z"/>
<g stroke="rgb(255, 255, 255)" fill="rgb(25, 82, 208)">
	<path transform="matrix(1,0,0,1,5.5,-1.1)" style="fill: #570029" d="M 502.2 176.7 C 459 77.7 361.3 13.8 253.4 13.8 c -108 0 -205.7 64 -248.9 162.9 c -11.5 26.4 -8.9 56.5 6.9 80.7 c 15.8 24.1 42.3 38.4 70.9 38.4 h 91.7 l -20.3 136.7 c 0 0 0 0.1 0 0.1 c -1.7 13 4.4 29.4 16 42.6 c 11.9 13.6 26.9 21 42.2 21 h 83 c 15.4 0 30.4 -7.5 42.2 -21 c 11.6 -13.3 17.8 -29.6 16 -42.6 c 0 0 0 -0.1 0 -0.1 l -20.3 -136.7 h 91.7 c 28.6 0 55.1 -14.4 70.9 -38.4 C 511.2 233.2 513.7 203.1 502.2 176.7 z M 332.9 435.4 c 0.8 5.9 -2.8 16.9 -11.2 26.4 c -7.8 8.9 -17.6 14.1 -26.9 14.1 h -83 c -9.3 0 -19.1 -5.1 -26.9 -14.1 c -8.3 -9.5 -11.9 -20.5 -11.2 -26.4 l 20.7 -139.6 h 117.6 L 332.9 435.4 z M 82.2 275.4 c -21.7 0 -41.8 -10.9 -53.8 -29.2 c -12 -18.4 -14 -41.3 -5.2 -61.3 C 63.1 93.3 153.5 34.2 253.4 34.2 s 190.2 59.2 230.2 150.7 c 8.7 20 6.8 43 -5.2 61.3 c -12 18.3 -32.1 29.2 -53.8 29.2 H 82.2 z"/>
	<path transform="matrix(1,0,0,1,4.7,-1.1)" style="fill: #570029" d="M 220.5 238.4 h -5.8 c -5.6 0 -10.2 4.6 -10.2 10.2 s 4.6 10.2 10.2 10.2 h 5.8 c 5.6 0 10.2 -4.6 10.2 -10.2 S 226.2 238.4 220.5 238.4 z"/>
	<path transform="matrix(1,0,0,1,2.8,-1.1)" style="fill: #570029" d="M 178.5 238.4 H 80 c -5.6 0 -10.2 4.6 -10.2 10.2 s 4.6 10.2 10.2 10.2 h 98.5 c 5.6 0 10.2 -4.6 10.2 -10.2 S 184.1 238.4 178.5 238.4 z"/>
</g>
<g>
</g>
<g>
</g>
<g>
</g>
<g>
</g>
<g>
</g>
<g>
</g>
<g>
</g>
<g>
</g>
<g>
</g>
<g>
</g>
<g>
</g>
<g>
</g>
<g>
</g>
<g>
</g>
<g>
</g>
</svg>
