<?xml version="1.0" encoding="iso-8859-1"?>
<!-- Generator: Adobe Illustrator 19.0.0, SVG Export Plug-In . SVG Version: 6.00 Build 0)  -->
<svg version="1.1" id="Capa_1" xmlns="http://www.w3.org/2000/svg" xmlns:xlink="http://www.w3.org/1999/xlink" x="0px" y="0px"
	 viewBox="0 0 57.6 57.6" style="enable-background:new 0 0 57.6 57.6;" xml:space="preserve">
<g>
	<g>
		<path d="M57.329,4.815c-0.36-0.625-1.007-0.998-1.729-0.998H1.999c-0.724,0-1.372,0.375-1.732,1.004
			c-0.36,0.628-0.356,1.377,0.01,2.002l27.019,45.974c0.362,0.618,1.006,0.986,1.722,0.986c0.002,0,0.004,0,0.006,0
			c0.718-0.002,1.362-0.375,1.722-0.996L57.329,6.812C57.69,6.187,57.69,5.441,57.329,4.815z M29.021,51.784L2.006,5.817
			l53.591-0.006L29.021,51.784z"/>
		<path d="M29.019,47.802L51.876,7.817H5.244L29.019,47.802z M28.985,43.832L8.76,9.817h39.669L28.985,43.832z"/>
	</g>
</g>
<g>
</g>
<g>
</g>
<g>
</g>
<g>
</g>
<g>
</g>
<g>
</g>
<g>
</g>
<g>
</g>
<g>
</g>
<g>
</g>
<g>
</g>
<g>
</g>
<g>
</g>
<g>
</g>
<g>
</g>
</svg>
