<?xml version="1.0" encoding="iso-8859-1"?>
<!-- Generator: Adobe Illustrator 18.0.0, SVG Export Plug-In . SVG Version: 6.00 Build 0)  -->
<!DOCTYPE svg PUBLIC "-//W3C//DTD SVG 1.1//EN" "http://www.w3.org/Graphics/SVG/1.1/DTD/svg11.dtd">
<svg version="1.1" id="Capa_1" xmlns="http://www.w3.org/2000/svg" xmlns:xlink="http://www.w3.org/1999/xlink" x="0px" y="0px"
	 viewBox="0 0 425.718 425.718" style="enable-background: new 0 0 425.718 425.718" xml:space="preserve">
<g stroke="rgb(246, 13, 202)" fill="rgb(169, 129, 39)">
	<path d="M 222.6 304.3 c 0 0 0 0 0 0 c -3.2 0 -6.5 0 -9.7 -0.1 c -3.2 0.1 -6.5 0.1 -9.7 0.1 c -15.6 0 -31.5 -1.1 -46.7 -3.4 c -15.4 47.5 -33.7 124.8 10.8 124.8 c 24.4 0 37.1 0 43.6 0 c 1.9 0 3.3 0 4.2 0 c 6.4 0 19.2 0 43.6 0 c 44.5 0 26.2 -77.4 10.8 -124.8 C 254.1 303.2 238.2 304.3 222.6 304.3 z"/>
	<path d="M 326.4 141 c -13.8 -21.3 -32.8 -50.5 -55.6 -102.9 C 260.3 13.9 238.8 0 211.8 0 c -26.4 0 -46.1 13.2 -56.9 38.1 c -22.8 52.4 -41.8 81.6 -55.6 102.9 c -20.3 31.2 -29.6 45.5 -26 93.4 c 1.5 20.1 15.4 35.8 41.5 46.7 c 22.6 9.5 54 14.7 88.4 14.7 c 3.2 0 6.4 0 9.6 -0.1 l 0.1 0 l 0.1 0 c 3.2 0.1 6.4 0.1 9.6 0.1 c 0 0 0 0 0 0 c 34.4 0 65.7 -5.2 88.4 -14.7 c 26 -10.9 40 -26.6 41.5 -46.7 C 356 186.5 346.7 172.2 326.4 141 z M 309.8 251.8 c -7.9 6.2 -17.1 9.7 -26.9 11.7 c -4.7 1 -9.7 1.7 -12.6 -3.3 c -3.3 -5.6 0.9 -12.8 7.4 -12.9 c 10.8 0 22.6 -0.6 31.2 -8.1 c 10.8 -9.5 9.7 -27.2 5.5 -39.6 C 323.9 216 326 238.9 309.8 251.8 z"/>
</g>
<g>
</g>
<g>
</g>
<g>
</g>
<g>
</g>
<g>
</g>
<g>
</g>
<g>
</g>
<g>
</g>
<g>
</g>
<g>
</g>
<g>
</g>
<g>
</g>
<g>
</g>
<g>
</g>
<g>
</g>
</svg>
